<svg width="30" height="30" viewBox="0 0 30 30" fill="none" xmlns="http://www.w3.org/2000/svg">
<g clip-path="url(#clip0_735_7669)">
<path fill-rule="evenodd" clip-rule="evenodd" d="M24.7994 0.488719C24.9794 0.121672 25.3818 -0.0689215 25.7912 0.0228442C26.19 0.118141 26.4706 0.472844 26.4706 0.88225V8.91344C28.4823 9.32284 30 11.1052 30 13.2352C30 15.3652 28.4823 17.1493 26.4706 17.5587V25.5881C26.4706 25.9975 26.19 26.354 25.7912 26.4475C25.7246 26.4629 25.6565 26.4706 25.5882 26.4705C25.2582 26.4705 24.9512 26.287 24.7994 25.9834C21.5506 19.4875 15.0653 19.4117 15 19.4117H8.82353V28.2352H10.1947C10.0094 26.827 9.92117 24.3758 11.1865 22.7558C12.0053 21.7075 13.2124 21.1764 14.7794 21.1764V22.9411C13.7718 22.9411 13.0518 23.2358 12.5788 23.8393C11.5041 25.2122 11.8747 27.9617 12.1059 28.9058C12.1712 29.1687 12.1112 29.4475 11.9453 29.6611C11.7776 29.8746 11.52 29.9999 11.25 29.9999H7.94117C7.45412 29.9999 7.05883 29.6064 7.05883 29.1176V19.4117H6.17648C3.74294 19.4117 1.7647 17.4334 1.7647 14.9999V14.1176H0.882359C0.395297 14.1175 0 13.724 0 13.2352C0 12.7481 0.395297 12.3528 0.882344 12.3528H1.7647V11.4705C1.7647 9.0387 3.74294 7.0587 6.17647 7.0587H14.9982C15.2629 7.05695 21.5682 6.94931 24.7994 0.488719ZM24.7059 3.90167C21.6635 7.68872 17.64 8.56048 15.8824 8.76167V17.7105C17.64 17.9117 21.6635 18.7817 24.7059 22.5705V3.90167ZM14.1177 8.82344H6.17647C4.71706 8.82344 3.52941 10.0111 3.52941 11.4705V14.9999C3.52941 16.4593 4.71706 17.647 6.17647 17.647H14.1177V8.82344ZM26.4706 10.7522V15.7199C27.4959 15.3546 28.2353 14.384 28.2353 13.2352C28.2353 12.0864 27.4959 11.1175 26.4706 10.7522Z" fill="#e74a3b"/>
</g>
<defs>
<clipPath id="clip0_735_7669">
<rect width="30" height="30" fill="white"/>
</clipPath>
</defs>
</svg>
