<svg width="50" height="50" viewBox="0 0 50 50" fill="none" xmlns="http://www.w3.org/2000/svg">
<path d="M38 21H12C11.45 21 11 21.45 11 22V37C11 38.65 12.35 40 14 40H36C37.65 40 39 38.65 39 37V22C39 21.45 38.55 21 38 21ZM20 35C20 35.55 19.55 36 19 36H17C16.45 36 16 35.55 16 35V33C16 32.45 16.45 32 17 32H19C19.55 32 20 32.45 20 33V35ZM20 28C20 28.55 19.55 29 19 29H17C16.45 29 16 28.55 16 28V26C16 25.45 16.45 25 17 25H19C19.55 25 20 25.45 20 26V28ZM27 35C27 35.55 26.55 36 26 36H24C23.45 36 23 35.55 23 35V33C23 32.45 23.45 32 24 32H26C26.55 32 27 32.45 27 33V35ZM27 28C27 28.55 26.55 29 26 29H24C23.45 29 23 28.55 23 28V26C23 25.45 23.45 25 24 25H26C26.55 25 27 25.45 27 26V28ZM34 35C34 35.55 33.55 36 33 36H31C30.45 36 30 35.55 30 35V33C30 32.45 30.45 32 31 32H33C33.55 32 34 32.45 34 33V35ZM34 28C34 28.55 33.55 29 33 29H31C30.45 29 30 28.55 30 28V26C30 25.45 30.45 25 31 25H33C33.55 25 34 25.45 34 26V28Z" fill="#36b9cc"/>
<path d="M36 13H33.5V12C33.5 10.9 32.6 10 31.5 10C30.4 10 29.5 10.9 29.5 12V13H20.5V12C20.5 10.9 19.6 10 18.5 10C17.4 10 16.5 10.9 16.5 12V13H14C12.35 13 11 14.35 11 16V17C11 17.55 11.45 18 12 18H38C38.55 18 39 17.55 39 17V16C39 14.35 37.65 13 36 13Z" fill="#36b9cc"/>
</svg>
