<svg width="30" height="30" viewBox="0 0 30 30" fill="none" xmlns="http://www.w3.org/2000/svg">
<path d="M25.3739 6.87688C25.374 6.87681 25.3741 6.87669 25.3741 6.87669L19.5956 1.09817C19.4599 0.962418 19.2723 0.878418 19.0652 0.878418H5.15625C4.74203 0.878418 4.40625 1.21419 4.40625 1.62842V28.3714C4.40625 28.7856 4.74203 29.1214 5.15625 29.1214H24.8438C25.258 29.1214 25.5938 28.7856 25.5938 28.3714V7.40698C25.5938 7.21517 25.516 7.02002 25.3739 6.87688ZM24.0938 27.6214H5.90625V2.37842H18.7545L23.0331 6.65698H19.8152V5.08993C19.8152 4.67571 19.4794 4.33993 19.0652 4.33993C18.6509 4.33993 18.3152 4.67571 18.3152 5.08993V7.40698C18.3152 7.82121 18.6509 8.15698 19.0652 8.15698C19.0652 8.15698 22.5303 8.15698 24.0938 8.15698V27.6214Z" fill="#1cc88a"/>
<path d="M11.0705 8.41549L9.57597 9.91005L9.36233 9.69642C9.06942 9.4035 8.59459 9.4035 8.30172 9.69642C8.0088 9.98929 8.0088 10.4642 8.30172 10.7571L9.04572 11.5011C9.18634 11.6417 9.37714 11.7207 9.57604 11.7207C9.77498 11.7207 9.96574 11.6417 10.1064 11.5011L12.1313 9.4761C12.4241 9.18319 12.4241 8.70833 12.1312 8.41545C11.8382 8.12258 11.3634 8.12258 11.0705 8.41549Z" fill="#1cc88a"/>
<path d="M20.9189 11.7207H21.1682C21.5824 11.7207 21.9182 11.3849 21.9182 10.9707C21.9182 10.5565 21.5824 10.2207 21.1682 10.2207H20.9189C20.5047 10.2207 20.1689 10.5565 20.1689 10.9707C20.1689 11.3849 20.5047 11.7207 20.9189 11.7207Z" fill="#1cc88a"/>
<path d="M13.7773 10.2207C13.3631 10.2207 13.0273 10.5565 13.0273 10.9707C13.0273 11.3849 13.3631 11.7207 13.7773 11.7207H18.6377C19.0519 11.7207 19.3877 11.3849 19.3877 10.9707C19.3877 10.5565 19.0519 10.2207 18.6377 10.2207H13.7773Z" fill="#1cc88a"/>
<path d="M20.9189 16.333H21.1682C21.5824 16.333 21.9182 15.9972 21.9182 15.583C21.9182 15.1688 21.5824 14.833 21.1682 14.833H20.9189C20.5047 14.833 20.1689 15.1688 20.1689 15.583C20.1689 15.9972 20.5047 16.333 20.9189 16.333Z" fill="#1cc88a"/>
<path d="M18.6377 14.833H13.7773C13.3631 14.833 13.0273 15.1688 13.0273 15.583C13.0273 15.9972 13.3631 16.333 13.7773 16.333H18.6377C19.0519 16.333 19.3877 15.9972 19.3877 15.583C19.3877 15.1688 19.0519 14.833 18.6377 14.833Z" fill="#1cc88a"/>
<path d="M20.9189 20.9453H21.1682C21.5824 20.9453 21.9182 20.6095 21.9182 20.1953C21.9182 19.7811 21.5824 19.4453 21.1682 19.4453H20.9189C20.5047 19.4453 20.1689 19.7811 20.1689 20.1953C20.1689 20.6095 20.5047 20.9453 20.9189 20.9453Z" fill="#1cc88a"/>
<path d="M18.6377 19.4453H13.7773C13.3631 19.4453 13.0273 19.7811 13.0273 20.1953C13.0273 20.6095 13.3631 20.9453 13.7773 20.9453H18.6377C19.0519 20.9453 19.3877 20.6095 19.3877 20.1953C19.3877 19.7811 19.0519 19.4453 18.6377 19.4453Z" fill="#1cc88a"/>
<path d="M20.9189 25.5576H21.1682C21.5824 25.5576 21.9182 25.2218 21.9182 24.8076C21.9182 24.3934 21.5824 24.0576 21.1682 24.0576H20.9189C20.5047 24.0576 20.1689 24.3934 20.1689 24.8076C20.1689 25.2218 20.5047 25.5576 20.9189 25.5576Z" fill="#1cc88a"/>
<path d="M18.6377 24.0576H13.7773C13.3631 24.0576 13.0273 24.3934 13.0273 24.8076C13.0273 25.2218 13.3631 25.5576 13.7773 25.5576H18.6377C19.0519 25.5576 19.3877 25.2218 19.3877 24.8076C19.3877 24.3934 19.0519 24.0576 18.6377 24.0576Z" fill="#1cc88a"/>
<path d="M9.57596 16.333C9.77486 16.333 9.96566 16.254 10.1063 16.1133L12.1311 14.0885C12.424 13.7956 12.424 13.3207 12.1311 13.0278C11.8382 12.7349 11.3634 12.7349 11.0705 13.0278L9.57599 14.5223L9.36236 14.3087C9.06948 14.0158 8.59458 14.0157 8.30171 14.3086C8.00883 14.6015 8.00879 15.0764 8.30167 15.3693L9.04567 16.1133C9.18629 16.2539 9.37706 16.333 9.57596 16.333Z" fill="#1cc88a"/>
<path d="M8.78378 19.1828L8.30168 19.665C8.00881 19.9579 8.00881 20.4328 8.30172 20.7256C8.44816 20.8721 8.64008 20.9453 8.83205 20.9453C9.02401 20.9453 9.21593 20.8721 9.36241 20.7256L9.84447 20.2435L10.3266 20.7256C10.473 20.8721 10.6649 20.9453 10.8569 20.9453C11.0489 20.9453 11.2408 20.8721 11.3872 20.7256C11.6801 20.4327 11.6801 19.9579 11.3872 19.665L10.9052 19.1828L11.3873 18.7007C11.6801 18.4078 11.6801 17.9329 11.3872 17.6401C11.0943 17.3472 10.6194 17.3472 10.3266 17.6401L9.84447 18.1222L9.36233 17.6401C9.06942 17.3472 8.5946 17.3472 8.30172 17.6401C8.00885 17.933 8.00881 18.4079 8.30172 18.7007L8.78378 19.1828Z" fill="#1cc88a"/>
<path d="M11.0705 22.2524L9.57597 23.7469L9.36233 23.5333C9.06942 23.2404 8.59459 23.2404 8.30172 23.5333C8.0088 23.8262 8.0088 24.301 8.30172 24.5939L9.04572 25.3379C9.18634 25.4786 9.37714 25.5576 9.57604 25.5576C9.77498 25.5576 9.96574 25.4786 10.1064 25.3379L12.1313 23.313C12.4241 23.0201 12.4241 22.5452 12.1312 22.2523C11.8382 21.9595 11.3634 21.9595 11.0705 22.2524Z" fill="#1cc88a"/>
</svg>
