<svg width="44" height="46" viewBox="0 0 44 46" fill="none" xmlns="http://www.w3.org/2000/svg">
<path d="M21.9999 5.46692C17.3807 5.46692 12.9507 7.34359 9.68447 10.6841C6.41822 14.0246 4.58325 18.5553 4.58325 23.2794C4.58325 28.0036 6.41822 32.5343 9.68447 35.8748C12.9507 39.2152 17.3807 41.0919 21.9999 41.0919C26.6191 41.0919 31.0491 39.2152 34.3154 35.8748C37.5816 32.5343 39.4166 28.0036 39.4166 23.2794C39.4166 18.5553 37.5816 14.0246 34.3154 10.6841C31.0491 7.34359 26.6191 5.46692 21.9999 5.46692Z" fill="#039BE5"/>
<path d="M24.3578 28.0006H28.865L29.5727 23.3178H24.3569V20.7585C24.3569 18.8131 24.9784 17.0881 26.7576 17.0881H29.6167V13.0016C29.1144 12.9322 28.0519 12.7803 26.0444 12.7803C21.8525 12.7803 19.3949 15.0444 19.3949 20.2025V23.3178H15.0857V28.0006H19.3949V40.8716C20.2484 41.0028 21.1128 41.0919 22.0001 41.0919C22.8022 41.0919 23.585 41.0169 24.3578 40.91V28.0006Z" fill="white"/>
</svg>
