<svg id="visual" viewBox="0 0 960 540" width="960" height="540"><path d="M0 469L22.8 461.3C45.7 453.7 91.3 438.3 137 422.3C182.7 406.3 228.3 389.7 274 394.3C319.7 399 365.3 425 411.2 438.8C457 452.7 503 454.3 548.8 436C594.7 417.7 640.3 379.3 686 369.3C731.7 359.3 777.3 377.7 823 380.3C868.7 383 914.3 370 937.2 363.5L960 357L960 541L937.2 541C914.3 541 868.7 541 823 541C777.3 541 731.7 541 686 541C640.3 541 594.7 541 548.8 541C503 541 457 541 411.2 541C365.3 541 319.7 541 274 541C228.3 541 182.7 541 137 541C91.3 541 45.7 541 22.8 541L0 541Z" fill="#fff" stroke-linecap="round" stroke-linejoin="miter" style="transition: all 0.4s cubic-bezier(0.16, 1, 0.3, 1) 0s;"></path></svg>