<svg width="87" height="116" viewBox="0 0 87 116" fill="none" xmlns="http://www.w3.org/2000/svg">
<path d="M35.6814 0.335522C27.8345 2.06867 20.3206 6.37679 14.8991 12.319C7.05226 20.8362 3.29528 31.3342 3.91352 42.9215C4.29397 49.1113 5.10244 52.6767 7.57538 58.0742C9.43009 62.3328 10.5239 63.2241 12.2835 62.2833C13.8529 61.3919 13.9004 60.0054 12.4262 56.9353C6.95715 45.6945 7.48027 32.9683 13.8053 21.7275C15.9929 17.9641 21.8899 11.8734 25.6469 9.5955C32.9231 5.18834 42.91 3.65327 50.7093 5.68353C56.5112 7.21861 61.5522 9.79357 62.5033 11.7248C63.6447 14.0026 63.1215 15.4387 59.8401 19.004C56.2258 22.916 54.7516 26.2337 54.1333 31.8789C53.4675 38.0687 52.564 40.5446 49.9959 43.3177C46.9047 46.5859 43.8611 47.9724 39.6761 48.0219C35.6338 48.0714 32.0195 46.5364 29.2137 43.6148C26.3603 40.5446 25.4091 37.9696 25.4091 33.0178C25.4091 29.2544 25.5518 28.5116 26.7883 26.1842C28.3576 23.2131 30.4026 21.1828 33.3986 19.5487C35.0156 18.6079 36.1569 18.4098 39.4383 18.4098C43.7184 18.4098 46.0011 19.2516 49.0923 21.9256C50.6617 23.3121 51.8982 23.4112 52.9444 22.3218C54.7991 20.3905 52.8018 17.667 47.523 14.993C44.6696 13.6065 44.0513 13.4579 39.6761 13.4579C35.8716 13.5075 34.3973 13.7055 32.2573 14.5969C28.4052 16.1815 24.1727 20.3905 22.2228 24.5006C20.7486 27.6203 20.6535 28.0659 20.6535 33.2654C20.6535 38.2668 20.7486 38.96 22.0326 41.6835C22.8411 43.3177 24.6007 45.8431 25.9798 47.2791C33.3511 54.9545 44.8598 55.1526 52.6115 47.7248C56.5587 43.9614 58.2708 40.1485 58.889 33.513C59.4597 27.9669 60.601 25.3424 63.8825 21.7275C66.5456 18.806 67.9723 16.1319 67.9723 14.1017C67.9723 11.8734 66.9261 9.19935 65.4518 7.41668C63.7873 5.43594 58.0805 2.4153 53.4675 1.0783C50.1386 0.0879288 38.8677 -0.357738 35.6814 0.335522Z" fill="white"/>
<path d="M74.9155 22.4209C73.9644 23.4112 73.9168 22.9656 75.5813 28.1155C80.6223 43.4167 76.4849 58.817 64.6909 68.6712C58.6987 73.6726 52.4688 76.0495 44.4317 76.4456C39.9138 76.6437 38.5823 76.4952 34.6826 75.4553C29.4514 74.0192 25.8846 72.187 25.8846 70.8005C25.8846 69.9587 26.5504 69.9092 35.1582 69.6616C44.3842 69.414 44.4317 69.414 47.618 67.8294C53.3248 65.0068 57.272 59.7579 58.5085 53.2214C59.2218 49.6066 58.8414 47.9725 57.1769 47.5763C55.2271 47.0316 54.4662 47.9229 53.8479 51.5873C52.8493 57.1334 49.9958 61.1444 45.3829 63.3232C43.2428 64.3136 42.1014 64.4621 33.7315 64.7097C23.3166 65.0068 22.3654 65.2544 21.0814 68.4236C19.1316 73.3755 21.7472 76.3466 30.9732 79.6643C35.2533 81.2489 35.6337 81.2985 43.005 81.2985C49.663 81.2985 51.0421 81.1499 54.1808 80.11C72.823 74.0192 84.4744 55.8954 82.3344 36.3356C81.8112 31.3837 80.0992 25.0453 78.6725 22.7675C77.8165 21.4305 76.0093 21.2819 74.9155 22.4209Z" fill="white"/>
<path d="M65.214 95.7086C63.8348 96.699 64.3104 97.4913 65.8797 96.8971C67.6869 96.1543 69.7318 96.3029 70.5403 97.1942C72.1572 98.8283 70.9208 100.66 67.9247 101.156C65.8797 101.502 65.642 102.493 67.5442 102.74C70.1123 103.037 70.8732 103.434 71.3488 104.672C72.2999 107.346 69.2087 109.376 65.7371 108.336C64.0726 107.841 63.6446 108.039 64.025 109.029C64.3579 110.02 68.0674 110.465 70.0647 109.772C73.2986 108.683 74.3448 104.82 71.9194 102.889L70.683 101.849L71.6817 100.71C73.0608 99.1749 73.0608 96.699 71.6817 95.7086C70.3025 94.6687 66.5931 94.7183 65.214 95.7086Z" fill="white"/>
<path d="M1.44045 99.8186C-0.556925 101.898 -0.461811 107.246 1.63068 109.128C3.10494 110.465 3.81829 110.515 5.67299 109.524L7.09969 108.732V110.515C7.09969 112.842 5.57788 113.882 2.86715 113.436C1.29778 113.189 0.917331 113.238 0.917331 113.882C0.917331 114.773 3.72317 115.417 5.72055 114.971C6.48146 114.773 7.5277 114.08 8.05083 113.387C8.90685 112.248 9.00196 111.356 9.00196 105.513C9.00196 100.116 8.85929 98.8777 8.33617 98.8777C7.95571 98.8777 7.57526 99.1748 7.43259 99.4719C7.28992 99.9671 7.00458 99.9671 6.19612 99.4719C4.72186 98.5806 2.4867 98.7292 1.44045 99.8186ZM6.52901 100.957C7.8606 102.691 7.5277 107.395 6.00589 108.385C5.0072 109.029 3.81829 108.831 2.8196 107.791C1.63068 106.553 1.48801 102.294 2.62937 101.156C3.53295 100.215 5.81566 100.116 6.52901 100.957Z" fill="white"/>
<path d="M16.7537 99.2242C16.4208 99.3233 16.1354 99.7194 16.1354 100.116C16.1354 100.561 16.7061 100.66 18.1804 100.512C19.6546 100.314 20.368 100.462 20.8435 101.056C21.9373 102.443 21.1289 103.334 18.7511 103.334C16.2781 103.334 14.7087 104.572 14.7087 106.603C14.7087 109.673 17.2768 111.059 19.94 109.475C21.3191 108.583 21.3667 108.583 22.0325 109.524C22.6983 110.465 22.7458 110.465 23.0312 109.673C23.2214 109.177 23.2689 106.9 23.2214 104.523C23.0787 101.007 22.8885 100.165 22.1276 99.5709C21.224 98.9271 17.9901 98.6795 16.7537 99.2242ZM21.224 105.117C21.9849 107.197 18.9413 109.673 17.3244 108.286C16.4683 107.543 16.3732 105.761 17.1817 104.919C18.0377 104.028 20.8435 104.176 21.224 105.117Z" fill="white"/>
<path d="M29.4514 104.622C29.4514 109.723 29.5465 110.317 30.2599 110.168C30.9257 110.069 31.1159 109.277 31.2586 105.811C31.3537 103.483 31.639 101.354 31.9244 101.007C32.2097 100.661 33.0657 100.363 33.7791 100.363C34.8729 100.363 35.3009 100.661 35.6813 101.7C35.9191 102.394 36.1093 103.335 36.0618 103.78C36.0142 104.226 36.0142 105.86 36.0618 107.395C36.1093 109.574 36.2996 110.267 36.8227 110.267C37.3934 110.267 37.536 109.524 37.536 106.652C37.536 102.295 38.2494 100.661 40.1517 100.463C42.2442 100.215 42.7673 101.354 42.7673 106.207C42.7673 109.871 42.8624 110.317 43.6233 110.168C44.1464 110.069 44.4793 109.475 44.5744 108.286C44.8598 105.414 44.1464 100.413 43.3855 99.6207C42.4819 98.6303 39.9139 98.6799 38.5823 99.6702C37.5836 100.413 37.3934 100.413 36.6325 99.6702C35.6338 98.7294 33.6364 98.6303 32.1621 99.4226C31.4012 99.8683 31.1159 99.8683 30.9732 99.4226C30.8781 99.1255 30.4977 98.8779 30.1172 98.8779C29.5941 98.8779 29.4514 100.017 29.4514 104.622Z" fill="white"/>
<path d="M51.6127 100.017C50.0909 101.601 49.6154 104.672 50.5665 106.999C51.4701 109.326 54.0857 110.614 56.5111 109.97C59.0791 109.277 58.984 108.237 56.416 108.584C54.5137 108.881 54.0857 108.732 52.9919 107.593C51.1372 105.612 51.6127 105.068 55.5124 104.919C58.7938 104.771 58.9365 104.721 58.9365 103.533C58.9365 101.948 57.7475 99.5712 56.7964 99.175C55.0368 98.4817 52.7065 98.8779 51.6127 100.017ZM56.4635 100.958C56.7964 101.304 57.0342 101.948 57.0342 102.443C57.0342 103.186 56.6062 103.335 54.6564 103.335C52.7065 103.335 52.2785 103.186 52.2785 102.443C52.2785 101.948 52.5163 101.304 52.8492 100.958C53.5626 100.215 55.7502 100.215 56.4635 100.958Z" fill="white"/>
<path d="M77.9591 99.1253C77.9591 99.2244 78.8627 101.799 79.9089 104.82C82.1441 111.01 82.049 112.347 79.3858 113.387C78.5773 113.684 78.0067 114.179 78.1493 114.476C78.3396 115.12 80.7174 114.922 81.621 114.129C82.4294 113.436 82.5245 113.189 85.3304 104.919C87.2327 99.4225 87.3278 98.8778 86.5193 98.8778C85.806 98.8778 85.3304 99.7691 84.3317 103.087C83.5708 105.414 82.8574 107.296 82.6672 107.296C82.477 107.296 81.7161 105.414 81.0027 103.087C79.9565 99.8681 79.4809 98.8778 78.8151 98.8778C78.3396 98.8778 77.9591 98.9768 77.9591 99.1253Z" fill="white"/>
</svg>
