<svg width="47" height="47" viewBox="0 0 47 47" fill="none" xmlns="http://www.w3.org/2000/svg">
<path d="M41.125 35.6885C41.125 38.2944 38.9336 40.4059 36.2292 40.4059H10.7708C8.06735 40.4059 5.875 38.2944 5.875 35.6885V11.1578C5.875 8.55189 8.06735 6.44037 10.7708 6.44037H36.2292C38.9336 6.44037 41.125 8.55189 41.125 11.1578V35.6885Z" fill="#0288D1"/>
<path d="M11.75 18.7057H16.6458V34.745H11.75V18.7057ZM14.1832 16.8187H14.1558C12.6949 16.8187 11.75 15.7695 11.75 14.459C11.75 13.1202 12.7243 12.1013 14.2116 12.1013C15.7009 12.1013 16.6184 13.1202 16.6458 14.459C16.6458 15.7686 15.7009 16.8187 14.1832 16.8187ZM35.25 34.745H30.3542V26.1602C30.3542 24.0864 29.1547 22.6712 27.2287 22.6712C25.7589 22.6712 24.9639 23.626 24.5781 24.5487C24.4371 24.8789 24.4792 25.7922 24.4792 26.2536V34.745H19.5833V18.7057H24.4792V21.1738C25.1851 20.1209 26.2906 18.7057 29.1185 18.7057C32.6219 18.7057 35.249 20.8285 35.249 25.5686L35.25 34.745Z" fill="white"/>
</svg>
