<svg width="39" height="31" viewBox="0 0 39 31" fill="none" xmlns="http://www.w3.org/2000/svg">
<path d="M15.5 13C17.9853 13 20 10.9853 20 8.5C20 6.01472 17.9853 4 15.5 4C13.0147 4 11 6.01472 11 8.5C11 10.9853 13.0147 13 15.5 13Z" stroke="#D7D7D7" stroke-width="2"/>
<path d="M15.5 23C17.1578 23 18.4468 22.9007 19.448 22.7067C20.4435 22.5138 21.2238 22.2145 21.8023 21.7636C23.0052 20.8259 23.0022 19.4925 23.0002 18.6043C23.0001 18.5688 23 18.534 23 18.5C23 16.9893 21.8781 15.8489 20.5703 15.1446C19.2217 14.4185 17.4273 14 15.5 14C13.5727 14 11.7783 14.4185 10.4297 15.1446C9.12184 15.8489 8 16.9893 8 18.5C8 18.534 7.99992 18.5688 7.99984 18.6043C7.99783 19.4925 7.99482 20.8259 9.1977 21.7636C9.77619 22.2145 10.5565 22.5138 11.552 22.7067C12.5532 22.9007 13.8422 23 15.5 23Z" stroke="#D7D7D7" stroke-width="2"/>
<mask id="path-3-outside-1_755_4045" maskUnits="userSpaceOnUse" x="0" y="0" width="39" height="31" fill="black">
<rect fill="white" width="39" height="31"/>
<path d="M37 15.5C37 21.8639 37 25.046 34.9497 27.0229C32.8996 29 29.5996 29 23 29H16C9.40033 29 6.10051 29 4.05025 27.0229C2 25.046 2 21.8639 2 15.5C2 9.13603 2 5.95407 4.05025 3.97702C6.10051 2 9.40033 2 16 2H23C29.5996 2 32.8996 2 34.9497 3.97702C35.7715 4.76949 36.2639 5.75553 36.559 7.0625"/>
</mask>
<path d="M39 15.5C39 14.3954 38.1046 13.5 37 13.5C35.8954 13.5 35 14.3954 35 15.5H39ZM34.9497 27.0229L33.5615 25.5832L33.5614 25.5833L34.9497 27.0229ZM4.05025 27.0229L5.43853 25.5832L5.43848 25.5832L4.05025 27.0229ZM4.05025 3.97702L2.66198 2.53733L2.66197 2.53734L4.05025 3.97702ZM34.9497 3.97702L33.5614 5.41667L33.5614 5.4167L34.9497 3.97702ZM34.6081 7.50292C34.8513 8.58037 35.922 9.25664 36.9994 9.0134C38.0769 8.77017 38.7531 7.69954 38.5099 6.62208L34.6081 7.50292ZM35 15.5C35 18.7405 34.9954 20.9624 34.7629 22.6304C34.5394 24.2332 34.1404 25.025 33.5615 25.5832L36.3379 28.4627C37.8093 27.044 38.4354 25.2563 38.7245 23.1828C39.0046 21.1745 39 18.6234 39 15.5H35ZM33.5614 25.5833C32.9723 26.1514 32.1211 26.5494 30.4238 26.7695C28.6761 26.996 26.3544 27 23 27V31C26.2452 31 28.8733 31.004 30.938 30.7363C33.0531 30.4621 34.877 29.8716 36.338 28.4626L33.5614 25.5833ZM23 27H16V31H23V27ZM16 27C12.6456 27 10.3239 26.996 8.57624 26.7695C6.87889 26.5494 6.02768 26.1514 5.43853 25.5832L2.66196 28.4626C4.12308 29.8716 5.94691 30.4621 8.06195 30.7363C10.1267 31.004 12.7547 31 16 31V27ZM5.43848 25.5832C4.85958 25.025 4.46059 24.2332 4.23712 22.6304C4.00456 20.9624 4 18.7405 4 15.5H0C0 18.6234 -0.00456142 21.1745 0.275441 23.1828C0.564535 25.2562 1.19067 27.0439 2.66202 28.4627L5.43848 25.5832ZM4 15.5C4 12.2594 4.00456 10.0376 4.23712 8.36959C4.46059 6.76684 4.85957 5.97498 5.43852 5.41671L2.66197 2.53734C1.19067 3.9561 0.564538 5.74376 0.275442 7.81723C-0.00456142 9.82549 0 12.3766 0 15.5H4ZM5.43851 5.41672C6.02766 4.84862 6.87887 4.45058 8.57623 4.23053C10.3239 4.00395 12.6456 4 16 4V0C12.7547 0 10.1267 -0.00395465 8.06196 0.263727C5.94693 0.537929 4.1231 1.12841 2.66198 2.53733L5.43851 5.41672ZM16 4H23V0H16V4ZM23 4C26.3544 4 28.6761 4.00395 30.4238 4.23053C32.1212 4.45059 32.9723 4.84862 33.5614 5.41667L36.338 2.53738C34.8769 1.1284 33.0531 0.537926 30.938 0.263726C28.8733 -0.00395465 26.2452 0 23 0V4ZM33.5614 5.4167C34.0339 5.87232 34.3754 6.47239 34.6081 7.50292L38.5099 6.62208C38.1524 5.03867 37.5091 3.66666 36.338 2.53735L33.5614 5.4167Z" fill="#D7D7D7" mask="url(#path-3-outside-1_755_4045)"/>
<path d="M25 15H32V14V13H25V14V15Z" stroke="#D7D7D7" stroke-width="2" stroke-linecap="round"/>
<path d="M24 10H32V9V8H24V9V10Z" stroke="#D7D7D7" stroke-width="2" stroke-linecap="round"/>
<path d="M27 20H32V19V18H27V19V20Z" stroke="#D7D7D7" stroke-width="2" stroke-linecap="round"/>
</svg>
