<svg width="41" height="35" viewBox="0 0 41 35" fill="none" xmlns="http://www.w3.org/2000/svg">
<path d="M8.44448 7.23813L12.9899 8.96282C12.1044 10.0905 11.621 11.4277 11.621 12.7945C11.621 16.5888 15.2372 19.6761 19.682 19.6761C24.1271 19.6761 27.7433 16.5888 27.7433 12.7945C27.7433 11.442 27.2689 10.1174 26.4006 8.99703L30.6728 7.37638V13.9058L29.5265 16.1088C29.4418 16.2707 29.4594 16.4582 29.5727 16.607C29.686 16.7557 29.8794 16.8454 30.0872 16.8454H32.4077C32.6126 16.8454 32.8044 16.7581 32.9181 16.6125C33.0314 16.467 33.0527 16.2826 32.9745 16.121L31.9002 13.9131V6.89528C31.9002 6.60621 31.6253 6.37159 31.2867 6.37159C31.2585 6.37159 31.2319 6.37543 31.2045 6.37858C31.1554 6.33947 31.101 6.30526 31.0376 6.28117L19.9895 2.0899C19.8304 2.02985 19.6496 2.02985 19.491 2.0899L8.44448 6.28117C8.22281 6.36531 8.08008 6.55279 8.08008 6.75982C8.08008 6.96686 8.22322 7.15399 8.44448 7.23813ZM26.5168 12.6702C26.5168 15.8874 23.4507 18.5045 19.6824 18.5045C15.914 18.5045 12.8483 15.8874 12.8483 12.6702C12.8483 11.45 13.3044 10.2584 14.1329 9.27214L19.4914 11.3051C19.5707 11.3351 19.6558 11.3501 19.7404 11.3501C19.8251 11.3501 19.9102 11.3351 19.9895 11.3051L25.2604 9.30566C26.071 10.285 26.5168 11.464 26.5168 12.6702ZM31.0311 15.798L31.2679 15.3435L31.4891 15.798H31.0311ZM19.7404 3.01718L29.2778 6.63518L19.7404 10.2532L10.2047 6.63518L19.7404 3.01718Z" fill="#152346"/>
<path d="M19.9164 20.7913C12.2084 20.7913 5.93672 26.1416 5.93018 32.7206C5.92977 33.0135 6.20051 33.2544 6.54364 33.2544H33.2883C33.6315 33.2544 33.9022 33.0139 33.9018 32.7206C33.8952 26.1416 27.6236 20.7913 19.9164 20.7913ZM7.17183 32.207C7.49329 26.4433 13.0865 21.8386 19.9164 21.8386C26.7459 21.8386 32.3391 26.4433 32.6605 32.207H7.17183Z" fill="#152346"/>
</svg>
