<svg width="40" height="40" viewBox="0 0 40 40" fill="none" xmlns="http://www.w3.org/2000/svg">
<path d="M36.6663 7.78324V27.8999C36.6663 29.4999 35.3664 30.9999 33.7664 31.1999L33.2163 31.2666C29.583 31.75 23.983 33.5999 20.783 35.3666C20.3496 35.6166 19.633 35.6166 19.183 35.3666L19.1163 35.3333C15.9163 33.5833 10.3331 31.75 6.71639 31.2666L6.23299 31.1999C4.63299 30.9999 3.33301 29.4999 3.33301 27.8999V7.76656C3.33301 5.78322 4.94963 4.28324 6.93296 4.44991C10.433 4.73324 15.733 6.49995 18.6996 8.34995L19.1163 8.59989C19.5996 8.89989 20.3997 8.89989 20.8831 8.59989L21.1664 8.41658C22.2164 7.76658 23.5497 7.11657 24.9997 6.53324V13.3333L28.333 11.1166L31.6663 13.3333V4.63332C32.1163 4.54999 32.5497 4.49992 32.9497 4.46659H33.0497C35.033 4.29992 36.6663 5.78324 36.6663 7.78324Z" stroke="#D7D7D7" stroke-width="1.5" stroke-linecap="round" stroke-linejoin="round"/>
<path d="M20 9.1499V34.1499" stroke="#D7D7D7" stroke-width="1.5" stroke-linecap="round" stroke-linejoin="round"/>
<path d="M31.6667 4.6333V13.3333L28.3333 11.1166L25 13.3333V6.53322C27.1833 5.66656 29.6167 4.96663 31.6667 4.6333Z" stroke="#D7D7D7" stroke-width="1.5" stroke-linecap="round" stroke-linejoin="round"/>
</svg>
