<svg width="41" height="35" viewBox="0 0 41 35" fill="none" xmlns="http://www.w3.org/2000/svg">
<mask id="path-1-inside-1_853_2097" fill="white">
<path d="M40.493 16.9365L30.75 14.7187V12.8333H34.1667C34.316 12.8333 34.4613 12.7915 34.5802 12.7143C34.699 12.6371 34.785 12.5288 34.8249 12.4059C34.8648 12.283 34.8565 12.1524 34.8012 12.0339C34.7459 11.9155 34.6466 11.8158 34.5186 11.7501L21.1833 4.91983V3.5H23.9167V4.08333C23.9167 4.23804 23.9887 4.38642 24.1168 4.49581C24.245 4.60521 24.4188 4.66667 24.6 4.66667H27.3333C27.5146 4.66667 27.6884 4.60521 27.8165 4.49581C27.9447 4.38642 28.0167 4.23804 28.0167 4.08333V1.75C28.0167 1.59529 27.9447 1.44692 27.8165 1.33752C27.6884 1.22812 27.5146 1.16667 27.3333 1.16667H25.2833V0.583333C25.2833 0.428624 25.2113 0.280251 25.0832 0.170854C24.955 0.0614581 24.7812 0 24.6 0H20.5C20.3188 0 20.145 0.0614581 20.0168 0.170854C19.8887 0.280251 19.8167 0.428624 19.8167 0.583333V4.91983L6.48142 11.7501C6.35341 11.8158 6.25415 11.9155 6.19882 12.0339C6.1435 12.1524 6.13515 12.283 6.17507 12.4059C6.21499 12.5288 6.30097 12.6371 6.41985 12.7143C6.53873 12.7915 6.68397 12.8333 6.83333 12.8333H10.25V14.7187L0.507035 16.9353C0.361396 16.9685 0.232705 17.0419 0.141 17.144C0.0492941 17.2462 -0.000278393 17.3713 1.17603e-06 17.5V19.8333C1.17603e-06 19.988 0.071995 20.1364 0.200145 20.2458C0.328295 20.3552 0.502103 20.4167 0.683334 20.4167C0.742868 20.4167 0.802148 20.41 0.859634 20.3968L2.05 20.125V31.5H0.683334C0.502103 31.5 0.328295 31.5615 0.200145 31.6709C0.071995 31.7803 1.17603e-06 31.9286 1.17603e-06 32.0833V34.4167C1.17603e-06 34.5714 0.071995 34.7197 0.200145 34.8291C0.328295 34.9385 0.502103 35 0.683334 35H40.3167C40.4979 35 40.6717 34.9385 40.7999 34.8291C40.928 34.7197 41 34.5714 41 34.4167V32.0833C41 31.9286 40.928 31.7803 40.7999 31.6709C40.6717 31.5615 40.4979 31.5 40.3167 31.5H38.95V20.125L40.1404 20.3957C40.2416 20.4187 40.3476 20.4216 40.4504 20.4041C40.5531 20.3866 40.6497 20.3492 40.7328 20.2948C40.8157 20.2404 40.8829 20.1705 40.9292 20.0906C40.9756 20.0106 40.9998 19.9226 41 19.8333V17.5C41 17.3715 40.9503 17.2466 40.8586 17.1447C40.7669 17.0429 40.6384 16.9696 40.493 16.9365ZM29.3833 31.5H26.65V25.6667H27.3333C27.4501 25.6672 27.5651 25.6422 27.6673 25.594C27.7696 25.5458 27.8556 25.4761 27.9173 25.3914C27.979 25.3068 28.0142 25.21 28.0197 25.1105C28.0251 25.0109 28.0005 24.9118 27.9483 24.8226L26.5817 22.4893C26.5246 22.3918 26.4368 22.31 26.3281 22.253C26.2194 22.196 26.0942 22.1661 25.9667 22.1667H15.0333C14.9064 22.1666 14.7819 22.1968 14.6738 22.2538C14.5658 22.3107 14.4785 22.3923 14.4218 22.4893L13.0551 24.8226C13.003 24.9115 12.9784 25.0104 12.9837 25.1097C12.989 25.2091 13.0239 25.3056 13.0852 25.3902C13.1465 25.4748 13.2321 25.5446 13.3338 25.5929C13.4356 25.6413 13.5502 25.6667 13.6667 25.6667H14.35V31.5H11.6167V15.1667H29.3833V31.5ZM21.1833 31.5H19.8167V28.5833C19.8167 28.4286 19.8887 28.2803 20.0168 28.1709C20.145 28.0615 20.3188 28 20.5 28C20.6812 28 20.855 28.0615 20.9832 28.1709C21.1113 28.2803 21.1833 28.4286 21.1833 28.5833V31.5ZM20.5 26.8333C19.9563 26.8333 19.4349 27.0177 19.0504 27.3459C18.666 27.6741 18.45 28.1192 18.45 28.5833V31.5H15.7167V25.6667H25.2833V31.5H22.55V28.5833C22.55 28.1192 22.334 27.6741 21.9496 27.3459C21.5651 27.0177 21.0437 26.8333 20.5 26.8333ZM14.7723 24.5L15.4556 23.3333H25.5444L26.2277 24.5H14.7723ZM26.65 2.33333V3.5H25.2833V2.33333H26.65ZM23.9167 1.75V2.33333H21.1833V1.16667H23.9167V1.75ZM20.5 5.93017L31.6998 11.6667H9.30017L20.5 5.93017ZM29.3833 12.8333V14H11.6167V12.8333H29.3833ZM1.36667 17.948L10.25 15.925V17.0508L1.36667 19.075V17.948ZM3.41667 19.8147L10.25 18.2583V31.5H3.41667V19.8147ZM39.6333 33.8333H1.36667V32.6667H39.6333V33.8333ZM37.5833 31.5H30.75V18.2583L37.5833 19.8135V31.5ZM39.6333 19.075L30.75 17.052V15.925L39.6333 17.9468V19.075Z"/>
</mask>
<path d="M40.493 16.9365L30.75 14.7187V12.8333H34.1667C34.316 12.8333 34.4613 12.7915 34.5802 12.7143C34.699 12.6371 34.785 12.5288 34.8249 12.4059C34.8648 12.283 34.8565 12.1524 34.8012 12.0339C34.7459 11.9155 34.6466 11.8158 34.5186 11.7501L21.1833 4.91983V3.5H23.9167V4.08333C23.9167 4.23804 23.9887 4.38642 24.1168 4.49581C24.245 4.60521 24.4188 4.66667 24.6 4.66667H27.3333C27.5146 4.66667 27.6884 4.60521 27.8165 4.49581C27.9447 4.38642 28.0167 4.23804 28.0167 4.08333V1.75C28.0167 1.59529 27.9447 1.44692 27.8165 1.33752C27.6884 1.22812 27.5146 1.16667 27.3333 1.16667H25.2833V0.583333C25.2833 0.428624 25.2113 0.280251 25.0832 0.170854C24.955 0.0614581 24.7812 0 24.6 0H20.5C20.3188 0 20.145 0.0614581 20.0168 0.170854C19.8887 0.280251 19.8167 0.428624 19.8167 0.583333V4.91983L6.48142 11.7501C6.35341 11.8158 6.25415 11.9155 6.19882 12.0339C6.1435 12.1524 6.13515 12.283 6.17507 12.4059C6.21499 12.5288 6.30097 12.6371 6.41985 12.7143C6.53873 12.7915 6.68397 12.8333 6.83333 12.8333H10.25V14.7187L0.507035 16.9353C0.361396 16.9685 0.232705 17.0419 0.141 17.144C0.0492941 17.2462 -0.000278393 17.3713 1.17603e-06 17.5V19.8333C1.17603e-06 19.988 0.071995 20.1364 0.200145 20.2458C0.328295 20.3552 0.502103 20.4167 0.683334 20.4167C0.742868 20.4167 0.802148 20.41 0.859634 20.3968L2.05 20.125V31.5H0.683334C0.502103 31.5 0.328295 31.5615 0.200145 31.6709C0.071995 31.7803 1.17603e-06 31.9286 1.17603e-06 32.0833V34.4167C1.17603e-06 34.5714 0.071995 34.7197 0.200145 34.8291C0.328295 34.9385 0.502103 35 0.683334 35H40.3167C40.4979 35 40.6717 34.9385 40.7999 34.8291C40.928 34.7197 41 34.5714 41 34.4167V32.0833C41 31.9286 40.928 31.7803 40.7999 31.6709C40.6717 31.5615 40.4979 31.5 40.3167 31.5H38.95V20.125L40.1404 20.3957C40.2416 20.4187 40.3476 20.4216 40.4504 20.4041C40.5531 20.3866 40.6497 20.3492 40.7328 20.2948C40.8157 20.2404 40.8829 20.1705 40.9292 20.0906C40.9756 20.0106 40.9998 19.9226 41 19.8333V17.5C41 17.3715 40.9503 17.2466 40.8586 17.1447C40.7669 17.0429 40.6384 16.9696 40.493 16.9365ZM29.3833 31.5H26.65V25.6667H27.3333C27.4501 25.6672 27.5651 25.6422 27.6673 25.594C27.7696 25.5458 27.8556 25.4761 27.9173 25.3914C27.979 25.3068 28.0142 25.21 28.0197 25.1105C28.0251 25.0109 28.0005 24.9118 27.9483 24.8226L26.5817 22.4893C26.5246 22.3918 26.4368 22.31 26.3281 22.253C26.2194 22.196 26.0942 22.1661 25.9667 22.1667H15.0333C14.9064 22.1666 14.7819 22.1968 14.6738 22.2538C14.5658 22.3107 14.4785 22.3923 14.4218 22.4893L13.0551 24.8226C13.003 24.9115 12.9784 25.0104 12.9837 25.1097C12.989 25.2091 13.0239 25.3056 13.0852 25.3902C13.1465 25.4748 13.2321 25.5446 13.3338 25.5929C13.4356 25.6413 13.5502 25.6667 13.6667 25.6667H14.35V31.5H11.6167V15.1667H29.3833V31.5ZM21.1833 31.5H19.8167V28.5833C19.8167 28.4286 19.8887 28.2803 20.0168 28.1709C20.145 28.0615 20.3188 28 20.5 28C20.6812 28 20.855 28.0615 20.9832 28.1709C21.1113 28.2803 21.1833 28.4286 21.1833 28.5833V31.5ZM20.5 26.8333C19.9563 26.8333 19.4349 27.0177 19.0504 27.3459C18.666 27.6741 18.45 28.1192 18.45 28.5833V31.5H15.7167V25.6667H25.2833V31.5H22.55V28.5833C22.55 28.1192 22.334 27.6741 21.9496 27.3459C21.5651 27.0177 21.0437 26.8333 20.5 26.8333ZM14.7723 24.5L15.4556 23.3333H25.5444L26.2277 24.5H14.7723ZM26.65 2.33333V3.5H25.2833V2.33333H26.65ZM23.9167 1.75V2.33333H21.1833V1.16667H23.9167V1.75ZM20.5 5.93017L31.6998 11.6667H9.30017L20.5 5.93017ZM29.3833 12.8333V14H11.6167V12.8333H29.3833ZM1.36667 17.948L10.25 15.925V17.0508L1.36667 19.075V17.948ZM3.41667 19.8147L10.25 18.2583V31.5H3.41667V19.8147ZM39.6333 33.8333H1.36667V32.6667H39.6333V33.8333ZM37.5833 31.5H30.75V18.2583L37.5833 19.8135V31.5ZM39.6333 19.075L30.75 17.052V15.925L39.6333 17.9468V19.075Z" stroke="#152346" stroke-width="2" mask="url(#path-1-inside-1_853_2097)"/>
</svg>
