<svg width="41" height="35" viewBox="0 0 41 35" fill="none" xmlns="http://www.w3.org/2000/svg">
<path d="M21.593 5.17925C21.275 4.99777 20.8944 4.89749 20.4998 4.89733L21.593 5.17925ZM21.593 5.17925C21.9107 5.3606 22.1453 5.61074 22.2798 5.88822M21.593 5.17925L22.2798 5.88822M22.2798 5.88822C22.4136 6.16396 22.4466 6.46139 22.38 6.74723M22.2798 5.88822L22.38 6.74723M22.38 6.74723C22.313 7.03439 22.145 7.31074 21.8815 7.53561M22.38 6.74723L21.8815 7.53561M21.8815 7.53561C21.6174 7.7611 21.2721 7.92148 20.8864 7.98701M21.8815 7.53561L20.8864 7.98701M20.8864 7.98701C20.5007 8.05253 20.1015 8.01851 19.7419 7.89141M20.8864 7.98701L19.7419 7.89141M19.7419 7.89141C19.3823 7.76431 19.087 7.55319 18.8853 7.29572M19.7419 7.89141L18.8853 7.29572M18.8853 7.29572C18.6847 7.03954 18.5845 6.74836 18.5844 6.45898M18.8853 7.29572L18.5844 6.45898M18.5844 6.45898C18.5846 6.07267 18.7638 5.68277 19.1166 5.38159M18.5844 6.45898L19.1166 5.38159M19.1166 5.38159C19.4718 5.07831 19.9684 4.89744 20.4996 4.89733L19.1166 5.38159ZM3.27347 29.792L3.29262 30.2721H3.77308H7.41138H7.89184L7.91098 29.792L8.61066 12.2461H12.513L13.2113 29.7922L13.2304 30.2723H13.7109H17.3507H17.8312L17.8503 29.7922L18.5485 12.2461H22.4515L23.1498 29.7922L23.1689 30.2723H23.6494H27.2892H27.7696L27.7888 29.7922L28.487 12.2461H32.3888L33.0885 29.792L33.1076 30.2721H33.5881H37.2281H37.7086L37.7277 29.792L38.4448 11.766L38.4448 11.7652L38.4619 11.3188L38.4622 11.3093V11.2997V6.98701V6.62543L38.1189 6.51217L20.4843 0.695937L20.3261 0.643769L20.1683 0.69687L2.87782 6.51311L2.53723 6.62767V6.98701V11.2997V11.3093L2.5376 11.3188L2.55464 11.7652L2.55467 11.7661L3.27347 29.792Z" stroke="#152346"/>
<path d="M3.04841 32.3291L3.07227 32.2756H37.9278L37.9516 32.3291H3.04841Z" stroke="#152346" stroke-width="3"/>
</svg>
