<svg width="41" height="42" viewBox="0 0 41 42" fill="none" xmlns="http://www.w3.org/2000/svg">
<path fill-rule="evenodd" clip-rule="evenodd" d="M4.99359 14.9297C3.5218 14.9297 2.36538 13.8469 2.36538 12.4688C2.36538 11.066 3.54808 9.92578 4.99359 9.92578C6.46538 9.92578 7.7094 11.0906 7.7094 12.4688C7.7094 13.8223 6.49167 14.9297 4.99359 14.9297ZM20.5 42C18.7847 42 17.1017 41.8039 15.4793 41.4225C15.4591 41.425 15.439 41.4258 15.4188 41.4258C15.3662 41.4258 15.3137 41.4176 15.2611 41.4094C15.1866 41.3905 15.1192 41.3593 15.0605 41.32C11.6754 40.4529 8.57058 38.7762 6.01859 36.3973C2.13761 32.7797 0 27.948 0 22.8047C0 21.2182 0.23391 19.5866 0.69735 17.9271C0.703483 17.8557 0.723632 17.786 0.756923 17.7204C0.961923 17.0166 1.2081 16.3086 1.49457 15.5966C0.736774 14.4523 0.175214 13.3498 0.175214 12.4688C0.175214 9.9832 2.3391 7.95703 4.99359 7.95703C5.70671 7.95703 6.38041 8.09566 6.98402 8.34668C8.74842 6.94723 10.7108 5.84309 12.8178 5.05395C12.8931 4.99406 12.9851 4.95059 13.0885 4.93008C13.1235 4.92352 13.1577 4.91941 13.1918 4.91777C15.5196 4.09992 17.9769 3.6832 20.4912 3.6832C21.2779 3.6832 22.0813 3.6832 22.8522 3.7718C23.5671 1.59223 25.7398 0 28.297 0C29.7776 0 31.1793 0.557813 32.2481 1.5668C33.3169 2.57578 33.9038 3.91289 33.9038 5.33203C33.9038 6.01863 33.6016 6.84551 33.1329 7.73145C35.4606 9.45902 37.395 11.6525 38.7397 14.093C40.2378 16.8082 41 19.7449 41 22.8047C41 27.948 38.8624 32.7797 34.9814 36.3973C31.1092 40.0066 25.9667 42 20.5 42ZM2.57652 15.047C2.68515 15.1282 2.76137 15.2422 2.79291 15.3661C3.27387 16.0617 3.80827 16.7631 4.27521 17.3742C4.52927 17.7105 4.78333 18.0305 5.00235 18.334C5.15128 18.1371 5.31774 17.932 5.47543 17.7188C6.71068 16.1191 8.57671 13.6992 8.57671 12.4688C8.58547 10.582 7.00855 9.10547 4.99359 9.10547C3.01368 9.10547 1.40171 10.6148 1.40171 12.4688C1.40171 13.1012 1.91421 14.0536 2.57652 15.047ZM2.34173 16.7984C2.22346 17.1257 2.11483 17.4513 2.01583 17.7762C2.31282 17.9484 2.86299 18.1945 3.59363 18.4513C3.49376 18.3192 3.38951 18.1839 3.28526 18.0469C2.97338 17.6392 2.65273 17.22 2.34173 16.7984ZM1.70132 18.9271C1.42712 20.0722 1.27118 21.2002 1.23526 22.3051C3.50252 22.0361 6.87013 22 8.4453 23.748C8.4453 23.748 8.4453 23.7563 8.45406 23.7563C9.20748 24.6176 9.76816 25.4379 10.2237 26.0941C11.494 27.9398 11.8357 28.4402 13.6491 27.5461C14.8791 26.953 16.2747 26.9489 17.4793 27.1425C16.188 25.4781 14.6303 23.4412 14.6303 22.0664C14.6303 19.9336 16.5927 18.1289 18.9231 18.1289C21.2009 18.1289 23.1282 19.9336 23.1282 22.0664C23.1282 23.4035 21.7002 25.3066 20.4387 26.9801C20.2249 27.2664 20.0173 27.542 19.8342 27.7946C21.4751 28.437 23.2386 29.5214 23.6188 30.4746C23.6188 30.4828 23.6276 30.491 23.6276 30.5074C23.6626 30.5977 23.6977 30.7043 23.7415 30.8191C24.0218 31.5738 24.4861 32.8453 24.1269 34.1742C23.6977 35.7656 22.2259 37.0043 19.7553 37.8574C18.0295 38.4497 16.8091 39.3438 16.2493 40.4086C17.6177 40.6982 19.0396 40.8516 20.5 40.8516C30.4346 40.8516 38.6381 33.7755 39.6649 24.7234C37.7621 24.5257 32.0588 23.6119 31.9765 19.7859C31.9677 19.4824 31.9677 19.1953 31.9677 18.9246C31.9502 17.3004 31.9239 16.6195 31.2669 16.0371C30.4609 15.3316 28.5861 14.6918 25.406 13.7566C23.0056 13.043 21.306 11.8043 20.3686 10.0816C19.2779 8.08582 19.4908 5.96121 19.7238 4.85379C17.7097 4.92598 15.7605 5.27789 13.912 5.89641C14.0688 7.00629 13.9347 8.14078 13.5265 9.14648C13.5265 9.15469 13.5177 9.16289 13.5177 9.17109C13.0009 10.2539 12.4489 10.984 12.0459 11.509C11.275 12.518 11.091 12.7559 11.9934 14.134C11.9934 14.134 11.9934 14.1422 12.0021 14.1422C12.9308 15.6105 13.4038 16.8082 13.4389 17.809C13.4739 18.7934 13.0709 19.5809 12.265 20.0812C11.5028 20.557 10.4515 20.7211 9.37393 20.7211C8.05107 20.7211 6.69316 20.475 5.74701 20.2699C4.33303 19.9508 2.71318 19.4381 1.70132 18.9271ZM1.24051 23.4609C1.54363 31.3499 7.28013 37.9641 15.0438 40.1133C15.5125 39.101 16.6348 37.7081 19.3261 36.7828C24.0306 35.1586 23.1194 32.673 22.5763 31.1965C22.5325 31.0816 22.4974 30.9668 22.4624 30.8684C22.2697 30.4172 20.9118 29.4082 19.0983 28.752C17.9682 28.3418 15.8393 27.7758 14.2098 28.5633C13.4301 28.9488 12.7818 29.1211 12.2387 29.1211C10.837 29.1211 10.0835 28.0219 9.1812 26.7176C8.72564 26.0531 8.2 25.2984 7.49915 24.4863C6.55474 23.4388 4.29274 23.0737 1.24051 23.4609ZM39.7551 23.561C39.7665 23.31 39.7735 23.0582 39.7735 22.8047C39.7735 17.3209 37.1462 12.2382 32.5372 8.75602C31.8039 9.92742 30.8832 11.1423 30.0579 12.2309C29.6663 12.7444 29.2975 13.2366 29.004 13.6541C30.5205 14.1791 31.4894 14.6409 32.1167 15.1922C33.1855 16.1273 33.1942 17.2348 33.2118 18.9C33.2118 19.1625 33.2205 19.4414 33.2205 19.7449C33.2853 22.5881 38.052 23.3699 39.7551 23.561ZM31.7251 7.7659C31.7426 7.68305 31.7794 7.60266 31.8363 7.53047C31.8565 7.50504 31.8793 7.48125 31.9029 7.45992C32.3637 6.63879 32.6686 5.89395 32.6686 5.34023C32.6773 3.02695 30.715 1.14844 28.297 1.14844C25.8353 1.14844 23.8291 3.02695 23.8291 5.33203C23.8291 6.75938 25.9141 9.47461 27.4385 11.468C27.7363 11.8617 28.0342 12.2391 28.2882 12.5918C28.5248 12.2719 28.7876 11.9273 29.0504 11.5746C29.9221 10.4204 30.9795 9.02344 31.7251 7.7659ZM22.621 4.90547C22.1041 4.85379 21.5565 4.84312 20.9853 4.84066C20.7838 5.68723 20.4641 7.72406 21.4724 9.55664C22.2609 10.9922 23.7064 12.034 25.7827 12.6492C26.2689 12.7911 26.7227 12.9265 27.1467 13.0561C26.9286 12.7657 26.6903 12.4573 26.4485 12.1406C24.7314 9.90117 22.6026 7.12852 22.6026 5.33203C22.6026 5.18848 22.6087 5.04574 22.621 4.90547ZM12.7319 6.33363C11.0858 7.00219 9.52987 7.89141 8.09137 8.9898C9.14878 9.81094 9.81197 11.0554 9.81197 12.4688C9.81197 14.0684 7.96346 16.4637 6.47415 18.3914C6.27878 18.6441 6.0878 18.891 5.91434 19.1198C6.00107 19.1404 6.0878 19.1592 6.17628 19.1789C8.7344 19.7367 10.7231 19.7039 11.6342 19.0805C12.8256 18.2684 11.9145 16.2668 10.9421 14.7246C9.68056 12.7969 10.1098 12.0668 11.0472 10.8363C11.4415 10.3195 11.9233 9.68789 12.3876 8.71172C12.6846 7.97754 12.8046 7.15148 12.7319 6.33363ZM18.9231 19.2773C17.2585 19.2773 15.8568 20.557 15.8568 22.0664C15.8568 23.1 17.4776 25.1836 18.5464 26.5699C18.669 26.7258 18.7917 26.8816 18.9056 27.0293C19.072 26.8078 19.2472 26.5617 19.4312 26.3238C20.4124 25.0195 21.8929 23.0426 21.8929 22.0664C21.9017 20.5816 20.5088 19.2773 18.9231 19.2773ZM18.9231 24.1992C17.6265 24.1992 16.6453 23.2805 16.6453 22.0664C16.6453 20.918 17.644 20.0156 18.9231 20.0156C20.1321 20.0156 21.1132 20.9344 21.1132 22.0664C21.1132 23.2641 20.1496 24.1992 18.9231 24.1992ZM18.9231 21.1641C18.3098 21.1641 17.8718 21.5414 17.8718 22.0664C17.8718 22.657 18.2923 23.0508 18.9231 23.0508C19.4838 23.0508 19.8868 22.6406 19.8868 22.0664C19.8868 21.5578 19.4662 21.1641 18.9231 21.1641ZM28.297 8.20312C26.5887 8.20312 25.1432 6.89062 25.1432 5.33203C25.1432 3.69961 26.5536 2.37891 28.297 2.37891C29.9615 2.37891 31.3633 3.73242 31.3633 5.33203C31.3633 6.89062 29.9615 8.20312 28.297 8.20312ZM28.297 3.52734C27.237 3.52734 26.3697 4.33945 26.3697 5.33203C26.3697 6.26719 27.2545 7.05469 28.297 7.05469C29.2782 7.05469 30.1368 6.25078 30.1368 5.33203C30.1368 4.35586 29.2957 3.52734 28.297 3.52734ZM4.99359 11.0742C4.22265 11.0742 3.59188 11.6977 3.59188 12.4688C3.59188 13.2152 4.19637 13.7812 4.99359 13.7812C5.81709 13.7812 6.48291 13.1906 6.48291 12.4688C6.48291 11.7223 5.79081 11.0742 4.99359 11.0742Z" fill="#152346"/>
</svg>
