<svg id="visual" viewBox="0 0 1440 555" width="1440" height="555" xmlns="http://www.w3.org/2000/svg" xmlns:xlink="http://www.w3.org/1999/xlink" version="1.1"><path d="M0 405L34.3 409.5C68.7 414 137.3 423 205.8 426.3C274.3 429.7 342.7 427.3 411.2 416.7C479.7 406 548.3 387 617 383.8C685.7 380.7 754.3 393.3 823 408.2C891.7 423 960.3 440 1028.8 440.3C1097.3 440.7 1165.7 424.3 1234.2 418.2C1302.7 412 1371.3 416 1405.7 418L1440 420L1440 556L1405.7 556C1371.3 556 1302.7 556 1234.2 556C1165.7 556 1097.3 556 1028.8 556C960.3 556 891.7 556 823 556C754.3 556 685.7 556 617 556C548.3 556 479.7 556 411.2 556C342.7 556 274.3 556 205.8 556C137.3 556 68.7 556 34.3 556L0 556Z" fill="#fFF" stroke-linecap="round" stroke-linejoin="miter"></path></svg>