<svg width="47" height="45" viewBox="0 0 47 45" fill="none" xmlns="http://www.w3.org/2000/svg">
<path fill-rule="evenodd" clip-rule="evenodd" d="M4.7666 39.9677L7.40448 31.0672C5.7771 28.4627 4.92131 25.5071 4.92229 22.4799C4.92718 13.0093 13.2658 5.30432 23.5137 5.30432C28.4869 5.30613 33.1536 7.09527 36.6639 10.3414C40.1733 13.5885 42.1061 17.9034 42.1042 22.4935C42.1003 31.9641 33.7597 39.67 23.5137 39.67H23.5059C20.3951 39.6691 17.3371 38.9478 14.6219 37.5786L4.7666 39.9677Z" fill="white"/>
<path fill-rule="evenodd" clip-rule="evenodd" d="M4.7665 40.4202C4.63725 40.4202 4.51192 40.3731 4.41889 40.2862C4.2965 40.1713 4.24852 40.0039 4.29454 39.8491L6.87856 31.1288C5.27665 28.4989 4.43162 25.5125 4.43358 22.4808C4.4375 12.7595 12.9964 4.85181 23.5136 4.85181C28.6151 4.85362 33.4081 6.68982 37.0105 10.0219C40.6128 13.355 42.5956 17.7839 42.5937 22.4935C42.5897 32.2138 34.0299 40.1224 23.5136 40.1224C20.3911 40.1215 17.3018 39.4093 14.5601 38.0618L4.89085 40.4048C4.84973 40.4156 4.8086 40.4202 4.7665 40.4202Z" fill="white"/>
<path fill-rule="evenodd" clip-rule="evenodd" d="M23.5138 5.30433C28.487 5.30614 33.1537 7.09528 36.664 10.3414C40.1734 13.5885 42.1062 17.9034 42.1043 22.4935C42.1003 31.9641 33.7598 39.67 23.5138 39.67H23.506C20.3952 39.6691 17.3372 38.9478 14.622 37.5786L4.76668 39.9677L7.40455 31.0673C5.77718 28.4627 4.92139 25.5071 4.92237 22.4799C4.92726 13.0093 13.2658 5.30433 23.5138 5.30433ZM23.5138 4.39935C12.7273 4.39935 3.9481 12.5098 3.9432 22.4799C3.94222 25.527 4.77451 28.5297 6.35293 31.1876L3.82178 39.7297C3.72974 40.0419 3.82374 40.375 4.07049 40.6048C4.25653 40.7786 4.50818 40.8736 4.76668 40.8736C4.84991 40.8736 4.93314 40.8636 5.01539 40.8437L14.5006 38.5451C17.2697 39.8736 20.3736 40.575 23.506 40.5759C34.3003 40.5759 43.0795 32.4645 43.0844 22.4944C43.0864 17.6627 41.0526 13.1197 37.3582 9.70253C33.6619 6.28442 28.7455 4.40116 23.5138 4.39935Z" fill="#CFD8DC"/>
<path fill-rule="evenodd" clip-rule="evenodd" d="M34.4432 12.3921C31.5253 9.69347 27.6468 8.20659 23.5186 8.20569C14.996 8.20569 8.06446 14.6093 8.06055 22.4808C8.05957 25.1786 8.87619 27.8048 10.4233 30.079L10.7914 30.6193L9.22967 35.8872L15.0782 34.47L15.6432 34.7795C18.0148 36.0808 20.7349 36.7686 23.5079 36.7695H23.5138C32.0305 36.7695 38.9621 30.365 38.965 22.4926C38.966 18.6781 37.3611 15.0908 34.4432 12.3921Z" fill="#40C351"/>
<path fill-rule="evenodd" clip-rule="evenodd" d="M18.8665 15.2998C18.5189 14.5849 18.1527 14.5704 17.8208 14.5577C17.5495 14.5468 17.2401 14.5477 16.9307 14.5477C16.6213 14.5477 16.118 14.6554 15.6921 15.0853C15.2661 15.5152 14.0657 16.5532 14.0657 18.6654C14.0657 20.7776 15.7303 22.8192 15.9623 23.1052C16.1944 23.3912 19.1759 27.8645 23.8975 29.5858C27.821 31.0156 28.62 30.7315 29.4719 30.66C30.3238 30.5885 32.2204 29.622 32.6072 28.6193C32.9939 27.6165 32.9939 26.7577 32.8784 26.5785C32.7619 26.3993 32.4525 26.2926 31.9883 26.0772C31.5242 25.8618 29.2398 24.8238 28.8139 24.6808C28.3879 24.5378 28.0785 24.4663 27.7681 24.8962C27.4587 25.3251 26.5687 26.2926 26.2974 26.5785C26.0262 26.8654 25.755 26.9016 25.2908 26.6862C24.8267 26.4708 23.3305 26.0183 21.5553 24.5559C20.1747 23.4183 19.2425 22.0129 18.9713 21.5831C18.7001 21.1541 18.9419 20.9215 19.175 20.707C19.3835 20.5143 19.6391 20.2057 19.8721 19.955C20.1042 19.7043 20.1815 19.5251 20.3363 19.2392C20.491 18.9523 20.4136 18.7016 20.2971 18.4871C20.1825 18.2717 19.2797 16.1487 18.8665 15.2998Z" fill="white"/>
</svg>
